<svg width="109" height="30" viewBox="0 0 109 30" fill="none" xmlns="http://www.w3.org/2000/svg">
<path d="M6.63 21.624H16.898V28.22H0V1.02H6.63V21.624Z" fill="black"/>
<path d="M22.3874 4.284C25.2434 1.428 28.6887 0 32.7234 0C36.7581 0 40.2034 1.428 43.0594 4.284C45.9154 7.14 47.3434 10.5853 47.3434 14.62C47.3434 18.6547 45.9154 22.1 43.0594 24.956C40.2034 27.812 36.7581 29.24 32.7234 29.24C28.6887 29.24 25.2434 27.812 22.3874 24.956C19.5314 22.1 18.1034 18.6547 18.1034 14.62C18.1034 10.5853 19.5314 7.14 22.3874 4.284ZM38.4014 8.942C36.8374 7.35533 34.9447 6.562 32.7234 6.562C30.5021 6.562 28.5981 7.35533 27.0114 8.942C25.4474 10.506 24.6654 12.3987 24.6654 14.62C24.6654 16.8413 25.4474 18.7453 27.0114 20.332C28.5981 21.896 30.5021 22.678 32.7234 22.678C34.9447 22.678 36.8374 21.896 38.4014 20.332C39.9881 18.7453 40.7814 16.8413 40.7814 14.62C40.7814 12.3987 39.9881 10.506 38.4014 8.942Z" fill="black"/>
<path d="M77.3628 14.144V14.62C77.3628 18.768 76.1274 22.2473 73.6568 25.058C71.1861 27.846 67.9674 29.24 64.0007 29.24C59.9887 29.24 56.5434 27.812 53.6647 24.956C50.7861 22.1 49.3467 18.6547 49.3467 14.62C49.3467 10.5853 50.7861 7.14 53.6647 4.284C56.5434 1.428 59.9887 0 64.0007 0C67.9221 0 71.2768 1.33733 74.0648 4.012L69.4068 8.67C67.8654 7.242 66.0634 6.528 64.0007 6.528C61.8021 6.528 59.9094 7.32133 58.3228 8.908C56.7587 10.4947 55.9767 12.3987 55.9767 14.62C55.9767 16.8413 56.7587 18.7453 58.3228 20.332C59.9094 21.9187 61.8021 22.712 64.0007 22.712C65.9274 22.712 67.4914 22.0547 68.6927 20.74H64.0007V14.144H77.3628Z" fill="black"/>
<path d="M83.2487 4.284C86.1047 1.428 89.5501 0 93.5847 0C97.6194 0 101.065 1.428 103.921 4.284C106.777 7.14 108.205 10.5853 108.205 14.62C108.205 18.6547 106.777 22.1 103.921 24.956C101.065 27.812 97.6194 29.24 93.5847 29.24C89.5501 29.24 86.1047 27.812 83.2487 24.956C80.3927 22.1 78.9647 18.6547 78.9647 14.62C78.9647 10.5853 80.3927 7.14 83.2487 4.284ZM99.2627 8.942C97.6987 7.35533 95.8061 6.562 93.5847 6.562C91.3634 6.562 89.4594 7.35533 87.8727 8.942C86.3087 10.506 85.5267 12.3987 85.5267 14.62C85.5267 16.8413 86.3087 18.7453 87.8727 20.332C89.4594 21.896 91.3634 22.678 93.5847 22.678C95.8061 22.678 97.6987 21.896 99.2627 20.332C100.849 18.7453 101.643 16.8413 101.643 14.62C101.643 12.3987 100.849 10.506 99.2627 8.942Z" fill="black"/>
</svg>
